<svg xmlns="http://www.w3.org/2000/svg" version="1.1" xmlns:xlink="http://www.w3.org/1999/xlink" width="512" height="512" x="0" y="0" viewBox="0 0 512 512" style="enable-background:new 0 0 512 512" xml:space="preserve" class=""><g><path d="M34.909 465.455h364.719c9.193 0 18.176-3.724 24.681-10.228l54.191-54.179c6.598-6.598 10.228-15.36 10.228-24.692v-294.9c0-6.423-5.225-11.636-11.636-11.636H34.909c-6.412 0-11.636 5.213-11.636 11.636V453.82c0 6.421 5.224 11.635 11.636 11.635z" style="" fill="#eceff9" data-original="#eceff9" class=""></path><path d="M488.727 81.455c0-6.423-5.225-11.636-11.636-11.636H34.909c-6.412 0-11.636 5.213-11.636 11.636v69.818h465.455V81.455z" style="" fill="#ffca5d" data-original="#ffca5d" class=""></path><path d="M477.091 69.818h-11.636v34.909c0 12.858-10.415 23.273-23.273 23.273H46.545c-12.858 0-23.273 10.415-23.273 23.273h465.455V81.455c0-6.424-5.213-11.637-11.636-11.637z" style="" fill="#f5b445" data-original="#f5b445" class=""></path><path d="M23.273 174.545h465.455v23.273H23.273z" style="" fill="#c4d7e5" data-original="#c4d7e5"></path><path d="M174.592 290.979c-.512 10.438 3.363 20.655 10.636 28.02L256 394.764l70.551-75.52c7.505-7.599 11.38-17.815 10.857-28.265-.524-10.554-5.306-20.096-13.452-26.845-12.241-10.124-29.929-10.915-43.008-1.92-6.528 4.515-11.345 10.88-13.952 18.409A11.615 11.615 0 0 1 256 288.466a11.63 11.63 0 0 1-10.996-7.843c-2.607-7.54-7.424-13.905-13.952-18.409a35.61 35.61 0 0 0-20.201-6.26c-8.134 0-16.244 2.746-22.807 8.192-8.157 6.737-12.928 16.279-13.452 26.833z" style="" fill="#f04d4e" data-original="#f04d4e" class=""></path><path d="M256 418.909a21.498 21.498 0 0 1-15.674-6.831l-71.889-76.951c-11.625-11.764-17.932-28.369-17.094-45.312.849-16.896 8.809-32.791 21.841-43.59 20.236-16.768 49.455-18.06 71.063-3.165a60.427 60.427 0 0 1 11.741 10.601 60.427 60.427 0 0 1 11.741-10.601c21.62-14.883 50.839-13.591 71.063 3.153 13.044 10.81 21.004 26.705 21.841 43.601.838 16.943-5.469 33.548-17.315 45.545l-71.68 76.73c-4.002 4.33-9.715 6.82-15.638 6.82zm-45.149-162.956c-8.134 0-16.244 2.746-22.807 8.192-8.145 6.737-12.916 16.268-13.44 26.833-.512 10.438 3.363 20.655 10.636 28.02L256 394.764l70.551-75.52c7.505-7.599 11.38-17.815 10.857-28.265-.524-10.554-5.306-20.096-13.452-26.845-12.241-10.124-29.929-10.915-43.008-1.92-6.528 4.515-11.345 10.88-13.952 18.409A11.615 11.615 0 0 1 256 288.466a11.63 11.63 0 0 1-10.996-7.843c-2.607-7.54-7.424-13.905-13.952-18.409a35.66 35.66 0 0 0-20.201-6.261z" style="" fill="#014463" data-original="#014463" class=""></path><path d="M323.968 264.134c-1.327-1.094-2.735-2.036-4.177-2.909 3.468 5.388 5.655 11.532 5.993 18.176.512 10.438-3.351 20.643-10.857 28.253l-70.156 75.089L256 394.764l70.551-75.52c7.505-7.599 11.369-17.804 10.857-28.253-.535-10.566-5.306-20.108-13.44-26.857z" style="" fill="#dd353f" data-original="#dd353f" class=""></path><path d="M477.091 46.545H372.364V34.909c0-6.435-5.213-11.636-11.636-11.636-6.423 0-11.636 5.201-11.636 11.636v11.636H162.909V34.909c0-6.435-5.213-11.636-11.636-11.636-6.423 0-11.636 5.201-11.636 11.636v11.636H34.909C15.663 46.545 0 62.208 0 81.455v372.364c0 19.247 15.663 34.909 34.909 34.909h364.719c15.535 0 30.15-6.063 41.135-17.047l54.191-54.179c10.996-10.985 17.047-25.6 17.047-41.146v-294.9c-.001-19.248-15.664-34.911-34.91-34.911zm-46.546 402.456v-30.092c0-6.423 5.225-11.636 11.636-11.636h30.092l-41.728 41.728zm58.182-88.274c0 12.835-10.438 23.273-23.273 23.273h-23.273c-19.247 0-34.909 15.663-34.909 34.909v23.273c0 12.835-10.438 23.273-23.273 23.273H34.909c-6.412 0-11.636-5.213-11.636-11.636V174.545h465.455v186.182zm0-209.454H23.273V81.455c0-6.423 5.225-11.636 11.636-11.636h104.727V84.69C132.713 88.727 128 96.14 128 104.727 128 117.585 138.426 128 151.284 128c12.847 0 23.261-10.415 23.261-23.273 0-8.599-4.713-16.023-11.636-20.049v-14.86h186.182v14.871c-6.924 4.038-11.636 11.45-11.636 20.038 0 12.858 10.426 23.273 23.284 23.273C373.585 128 384 117.585 384 104.727c0-8.599-4.713-16.023-11.636-20.049v-14.86h104.727c6.412 0 11.636 5.213 11.636 11.636v69.819z" style="" fill="#014463" data-original="#014463" class=""></path></g></svg>